<mxfile host="65bd71144e">
    <diagram name="Page-1" id="8vZIiy_4XEOm8xzQhVAP">
        <mxGraphModel dx="2543" dy="514" grid="1" gridSize="10" guides="1" tooltips="1" connect="1" arrows="1" fold="1" page="1" pageScale="1" pageWidth="827" pageHeight="1169" math="0" shadow="0">
            <root>
                <mxCell id="0"/>
                <mxCell id="1" parent="0"/>
                <mxCell id="OyMiCmH5JTuNhwcCjaKT-1" value="&lt;font style=&quot;font-size: 18px;&quot;&gt;Chairman,&amp;nbsp;&lt;/font&gt;&lt;font style=&quot;background-color: initial;&quot; size=&quot;3&quot;&gt;Secretary,&amp;nbsp;&amp;nbsp;&lt;/font&gt;&lt;span style=&quot;background-color: initial; font-size: medium;&quot;&gt;Treasurer&amp;nbsp;&lt;/span&gt;&lt;div&gt;&lt;span style=&quot;background-color: initial; font-size: medium;&quot;&gt;&amp;amp;&lt;/span&gt;&lt;/div&gt;&lt;div&gt;&lt;div&gt;&lt;font size=&quot;3&quot;&gt;2 - Non-Executives Board Members&lt;/font&gt;&lt;/div&gt;&lt;/div&gt;" style="rounded=0;whiteSpace=wrap;html=1;" parent="1" vertex="1">
                    <mxGeometry x="-560" y="424" width="1240" height="120" as="geometry"/>
                </mxCell>
                <mxCell id="OyMiCmH5JTuNhwcCjaKT-2" value="&lt;span style=&quot;font-size: 18px;&quot;&gt;Sports Committees&lt;/span&gt;&lt;div&gt;&lt;span style=&quot;font-size: 18px;&quot;&gt;(Executives: Chairperson, Treasurer, Event Coordinator)&amp;nbsp;&lt;/span&gt;&lt;/div&gt;" style="rounded=0;whiteSpace=wrap;html=1;" parent="1" vertex="1">
                    <mxGeometry x="-561" y="600" width="921" height="120" as="geometry"/>
                </mxCell>
                <mxCell id="OyMiCmH5JTuNhwcCjaKT-6" value="&lt;span style=&quot;font-size: 18px;&quot;&gt;Sports Events (Recurring - Weekly)&lt;/span&gt;" style="rounded=0;whiteSpace=wrap;html=1;" parent="1" vertex="1">
                    <mxGeometry x="-490" y="782" width="370" height="120" as="geometry"/>
                </mxCell>
                <mxCell id="OyMiCmH5JTuNhwcCjaKT-7" value="&lt;span style=&quot;font-size: 18px;&quot;&gt;Tournaments (Quartely/Bi-Annual/Annual)&lt;/span&gt;" style="rounded=0;whiteSpace=wrap;html=1;" parent="1" vertex="1">
                    <mxGeometry y="782" width="660" height="120" as="geometry"/>
                </mxCell>
                <mxCell id="OyMiCmH5JTuNhwcCjaKT-8" value="&lt;span style=&quot;font-size: 18px;&quot;&gt;J1 Club Members&amp;nbsp;&lt;/span&gt;" style="rounded=0;whiteSpace=wrap;html=1;" parent="1" vertex="1">
                    <mxGeometry x="-560" y="1000" width="1240" height="120" as="geometry"/>
                </mxCell>
                <mxCell id="OyMiCmH5JTuNhwcCjaKT-12" value="" style="shape=flexArrow;endArrow=classic;html=1;rounded=0;entryX=0.489;entryY=-0.024;entryDx=0;entryDy=0;entryPerimeter=0;exitX=0.362;exitY=1.008;exitDx=0;exitDy=0;exitPerimeter=0;" parent="1" edge="1">
                    <mxGeometry width="50" height="50" relative="1" as="geometry">
                        <mxPoint x="-113.11999999999989" y="544.96" as="sourcePoint"/>
                        <mxPoint x="-112.63099999999986" y="597.1199999999999" as="targetPoint"/>
                    </mxGeometry>
                </mxCell>
                <mxCell id="OyMiCmH5JTuNhwcCjaKT-13" value="" style="shape=flexArrow;endArrow=classic;html=1;rounded=0;" parent="1" edge="1">
                    <mxGeometry width="50" height="50" relative="1" as="geometry">
                        <mxPoint x="-313" y="720" as="sourcePoint"/>
                        <mxPoint x="-313" y="783" as="targetPoint"/>
                    </mxGeometry>
                </mxCell>
                <mxCell id="OyMiCmH5JTuNhwcCjaKT-14" value="" style="shape=flexArrow;endArrow=classic;html=1;rounded=0;exitX=0.875;exitY=0.989;exitDx=0;exitDy=0;exitPerimeter=0;" parent="1" source="OyMiCmH5JTuNhwcCjaKT-1" edge="1">
                    <mxGeometry width="50" height="50" relative="1" as="geometry">
                        <mxPoint x="537.8800000000001" y="544.96" as="sourcePoint"/>
                        <mxPoint x="525" y="780" as="targetPoint"/>
                    </mxGeometry>
                </mxCell>
                <mxCell id="OyMiCmH5JTuNhwcCjaKT-15" value="" style="shape=flexArrow;endArrow=classic;html=1;rounded=0;" parent="1" edge="1">
                    <mxGeometry width="50" height="50" relative="1" as="geometry">
                        <mxPoint x="307" y="721" as="sourcePoint"/>
                        <mxPoint x="307" y="784" as="targetPoint"/>
                    </mxGeometry>
                </mxCell>
                <mxCell id="OyMiCmH5JTuNhwcCjaKT-19" value="&lt;span style=&quot;font-size: 18px;&quot;&gt;J1 Club Ry&lt;/span&gt;&lt;div&gt;&lt;span style=&quot;font-size: 18px;&quot;&gt;Board&lt;/span&gt;&lt;/div&gt;" style="rounded=0;whiteSpace=wrap;html=1;fillColor=#dae8fc;strokeColor=#6c8ebf;" parent="1" vertex="1">
                    <mxGeometry x="-559" y="424" width="200" height="120" as="geometry"/>
                </mxCell>
                <mxCell id="OyMiCmH5JTuNhwcCjaKT-20" value="&lt;span style=&quot;font-size: 18px;&quot;&gt;J1 &amp;lt;sports&amp;gt; Committee&lt;/span&gt;" style="rounded=0;whiteSpace=wrap;html=1;fillColor=#dae8fc;strokeColor=#6c8ebf;" parent="1" vertex="1">
                    <mxGeometry x="-560" y="600" width="200" height="120" as="geometry"/>
                </mxCell>
                <mxCell id="OyMiCmH5JTuNhwcCjaKT-22" value="" style="endArrow=classic;startArrow=classic;html=1;rounded=0;exitX=0.199;exitY=-0.005;exitDx=0;exitDy=0;exitPerimeter=0;entryX=0.478;entryY=1.015;entryDx=0;entryDy=0;entryPerimeter=0;" parent="1" source="OyMiCmH5JTuNhwcCjaKT-8" target="OyMiCmH5JTuNhwcCjaKT-6" edge="1">
                    <mxGeometry width="50" height="50" relative="1" as="geometry">
                        <mxPoint x="270" y="690" as="sourcePoint"/>
                        <mxPoint x="320" y="640" as="targetPoint"/>
                    </mxGeometry>
                </mxCell>
                <mxCell id="OyMiCmH5JTuNhwcCjaKT-23" value="" style="endArrow=classic;startArrow=classic;html=1;rounded=0;exitX=0.199;exitY=-0.005;exitDx=0;exitDy=0;exitPerimeter=0;entryX=0.478;entryY=1.015;entryDx=0;entryDy=0;entryPerimeter=0;" parent="1" edge="1">
                    <mxGeometry width="50" height="50" relative="1" as="geometry">
                        <mxPoint x="307" y="999" as="sourcePoint"/>
                        <mxPoint x="307" y="904" as="targetPoint"/>
                    </mxGeometry>
                </mxCell>
                <mxCell id="OyMiCmH5JTuNhwcCjaKT-24" value="" style="endArrow=classic;startArrow=classic;html=1;rounded=0;exitX=0.199;exitY=-0.005;exitDx=0;exitDy=0;exitPerimeter=0;entryX=0.542;entryY=1.022;entryDx=0;entryDy=0;entryPerimeter=0;" parent="1" target="OyMiCmH5JTuNhwcCjaKT-2" edge="1">
                    <mxGeometry width="50" height="50" relative="1" as="geometry">
                        <mxPoint x="-63" y="999" as="sourcePoint"/>
                        <mxPoint x="-63" y="904" as="targetPoint"/>
                    </mxGeometry>
                </mxCell>
                <mxCell id="OyMiCmH5JTuNhwcCjaKT-25" value="&lt;b&gt;Approve and Create Sports Committees,&amp;nbsp;&lt;/b&gt;&lt;b style=&quot;background-color: initial;&quot;&gt;all Budgets Approvals and Overall control of the Club.&amp;nbsp;&lt;/b&gt;&lt;div&gt;&lt;b&gt;Works with Individual Sports committee for budgeting, planning of the tournaments etc.,&lt;/b&gt;&lt;/div&gt;" style="text;html=1;align=left;verticalAlign=middle;whiteSpace=wrap;rounded=0;" parent="1" vertex="1">
                    <mxGeometry x="-70" y="555" width="580" height="30" as="geometry"/>
                </mxCell>
                <mxCell id="OyMiCmH5JTuNhwcCjaKT-26" value="&lt;b&gt;Plan and Execution of Sport Events&lt;/b&gt;" style="text;html=1;align=center;verticalAlign=middle;whiteSpace=wrap;rounded=0;" parent="1" vertex="1">
                    <mxGeometry x="-310" y="740" width="220" height="30" as="geometry"/>
                </mxCell>
                <mxCell id="OyMiCmH5JTuNhwcCjaKT-27" value="&lt;b&gt;Plan and Execution of Tournaments along with the&amp;nbsp;&lt;/b&gt;&lt;div&gt;&lt;b&gt;J1 Club Board Members&lt;/b&gt;&lt;/div&gt;" style="text;html=1;align=center;verticalAlign=middle;whiteSpace=wrap;rounded=0;" parent="1" vertex="1">
                    <mxGeometry x="323" y="730" width="181" height="30" as="geometry"/>
                </mxCell>
                <mxCell id="OyMiCmH5JTuNhwcCjaKT-28" value="&lt;b&gt;Participation in Sports Events, Tournaments, can be members/executives in individual sports committees&lt;/b&gt;" style="text;html=1;align=center;verticalAlign=middle;whiteSpace=wrap;rounded=0;" parent="1" vertex="1">
                    <mxGeometry x="-359" y="950" width="710" height="30" as="geometry"/>
                </mxCell>
            </root>
        </mxGraphModel>
    </diagram>
    <diagram id="I_nq21D8omidsXVCWQ13" name="Page-2">
        <mxGraphModel dx="1716" dy="514" grid="1" gridSize="10" guides="1" tooltips="1" connect="1" arrows="1" fold="1" page="1" pageScale="1" pageWidth="850" pageHeight="1100" math="0" shadow="0">
            <root>
                <mxCell id="0"/>
                <mxCell id="1" parent="0"/>
            </root>
        </mxGraphModel>
    </diagram>
</mxfile>